<?xml version="1.0" encoding="utf-8"?>
<!-- Generator: Adobe Illustrator 16.0.0, SVG Export Plug-In . SVG Version: 6.00 Build 0)  -->
<!DOCTYPE svg PUBLIC "-//W3C//DTD SVG 1.1//EN" "http://www.w3.org/Graphics/SVG/1.1/DTD/svg11.dtd">
<svg version="1.1" id="LOGOS_VECTORISES__x28_PORTUGAIS_x29_"
	 xmlns="http://www.w3.org/2000/svg" xmlns:xlink="http://www.w3.org/1999/xlink" x="0px" y="0px" width="720px" height="310.91px"
	 viewBox="0 0 720 310.91" enable-background="new 0 0 720 310.91" xml:space="preserve">
<g>
	<g>
		<g>
			<g>
				<path fill="#7D868C" d="M88.985,223.373c-2.753-15.127-17.389-27.815-43.509-37.724c-3.68-12.526-15.66-32.621-37.96-27.887
					l-4.514,0.96l2.721,3.729c0.109,0.145,10.857,14.937,14.883,25.832c4.422,11.968,12.92,23.826,20.618,31.302h9.224
					c-7.827-5.492-19.122-19.544-24.237-33.374c-2.993-8.103-9.145-17.783-12.789-23.171c0.207-0.007,0.412-0.009,0.617-0.009
					c19.288,0,25.775,24.484,26.063,25.608l0.384,1.528l1.477,0.548c24.88,9.194,38.725,20.532,41.138,33.698
					c2.683,14.599-9.856,27.48-12.635,30.128h8.198C83.962,248.257,91.416,236.699,88.985,223.373"/>
				<path fill="#7D868C" d="M127.399,223.373c2.755-15.127,17.392-27.815,43.51-37.724c3.683-12.526,15.659-32.621,37.96-27.887
					l4.514,0.96l-2.721,3.729c-0.109,0.145-10.858,14.937-14.883,25.832c-4.422,11.968-12.916,23.826-20.618,31.302h-9.22
					c7.823-5.492,19.122-19.544,24.235-33.374c2.992-8.103,9.144-17.783,12.789-23.171c-0.207-0.007-0.413-0.009-0.617-0.009
					c-19.289,0-25.773,24.484-26.061,25.608l-0.387,1.528l-1.474,0.548c-24.884,9.194-38.725,20.532-41.142,33.698
					c-2.679,14.599,9.857,27.48,12.639,30.128h-8.199C132.421,248.257,124.972,236.699,127.399,223.373"/>
			</g>
			<g>
				<path fill="#003B71" d="M145.43,162.526c0.057,2.434-0.116,4.833-0.511,7.179c-3.212-0.828-6.573,0.905-7.683,4.091
					c-1.11,3.189,0.452,6.632,3.481,7.973c-1.161,2.105-2.51,4.101-4.04,5.956c-2.371-2.321-6.144-2.497-8.694-0.294
					c-2.561,2.207-2.927,5.971-0.968,8.65c-2.034,1.231-4.202,2.279-6.483,3.125c-0.89-3.188-4.068-5.226-7.38-4.593
					c-3.314,0.63-5.516,3.699-5.167,6.993c-2.431,0.054-4.833-0.115-7.178-0.511c0.827-3.212-0.904-6.574-4.093-7.683
					c-3.189-1.106-6.626,0.454-7.972,3.479c-2.108-1.155-4.1-2.508-5.951-4.04c2.318-2.367,2.495-6.14,0.294-8.693
					c-2.208-2.557-5.972-2.923-8.655-0.968c-1.23-2.031-2.274-4.198-3.122-6.479c3.188-0.894,5.226-4.072,4.595-7.384
					c-0.639-3.311-3.708-5.51-6.999-5.167c-0.052-2.431,0.116-4.83,0.512-7.176c3.212,0.827,6.573-0.903,7.68-4.092
					c1.107-3.189-0.452-6.626-3.481-7.973c1.16-2.105,2.513-4.1,4.044-5.951c2.366,2.318,6.14,2.497,8.69,0.289
					c2.556-2.208,2.922-5.972,0.97-8.651c2.031-1.23,4.199-2.276,6.479-3.125c0.894,3.189,4.07,5.23,7.384,4.595
					c3.311-0.632,5.51-3.703,5.167-6.995c2.427-0.057,4.83,0.115,7.17,0.512c-0.825,3.212,0.908,6.572,4.093,7.682
					c3.188,1.107,6.633-0.455,7.975-3.484c2.108,1.16,4.1,2.51,5.955,4.04c-2.318,2.371-2.497,6.144-0.292,8.698
					c2.208,2.557,5.971,2.922,8.654,0.967c1.23,2.032,2.277,4.197,3.125,6.48c-3.192,0.895-5.23,4.073-4.598,7.385
					C139.066,160.673,142.136,162.875,145.43,162.526 M131.809,163.345c0-13.591-11.054-24.649-24.642-24.649
					c-13.591,0-24.646,11.059-24.646,24.649c0,13.59,11.054,24.646,24.646,24.646C120.754,187.992,131.809,176.935,131.809,163.345"
					/>
				<path fill="#003B71" d="M196.685,118.366c-1.402,4.242-3.488,8.146-6.117,11.6c-3.295-3.158-8.491-3.415-12.083-0.436
					c-3.59,2.979-4.301,8.135-1.805,11.949c-3.877,1.948-8.102,3.275-12.53,3.874c-0.091-4.555-3.587-8.415-8.232-8.847
					c-4.647-0.436-8.796,2.712-9.728,7.171c-4.242-1.402-8.145-3.488-11.596-6.117c3.155-3.288,3.41-8.492,0.432-12.083
					c-2.978-3.592-8.138-4.302-11.948-1.807c-1.948-3.877-3.278-8.098-3.873-12.527c4.558-0.093,8.414-3.59,8.846-8.235
					c0.432-4.645-2.712-8.794-7.171-9.729c1.403-4.242,3.487-8.146,6.117-11.596c3.291,3.159,8.492,3.415,12.079,0.436
					c3.59-2.979,4.302-8.135,1.808-11.953c3.877-1.948,8.099-3.274,12.53-3.871c0.091,4.555,3.587,8.414,8.229,8.847
					c4.647,0.432,8.8-2.712,9.732-7.174c4.238,1.405,8.145,3.491,11.593,6.12c-3.151,3.288-3.408,8.492-0.432,12.079
					c2.983,3.595,8.139,4.306,11.949,1.807c1.952,3.877,3.282,8.102,3.874,12.527c-4.555,0.096-8.412,3.592-8.848,8.236
					C189.077,113.286,192.222,117.435,196.685,118.366 M184.267,105.775c0-14.054-11.43-25.487-25.488-25.487
					c-14.052,0-25.484,11.434-25.484,25.487c0,14.053,11.432,25.487,25.484,25.487C172.837,131.263,184.267,119.83,184.267,105.775"
					/>
				<path fill="#003B71" d="M99.412,99.295c0.391-4.781,4.319-8.422,9.003-8.57c-0.662-4.545-2.077-8.874-4.126-12.84
					c-3.894,2.613-9.206,1.945-12.312-1.716c-3.105-3.657-2.902-9.01,0.309-12.428c-3.58-2.663-7.62-4.761-12.002-6.157
					c-0.904,4.598-5.137,7.882-9.917,7.49c-4.782-0.39-8.421-4.319-8.567-9.003c-4.549,0.665-8.875,2.078-12.84,4.126
					c2.609,3.893,1.938,9.21-1.719,12.313c-3.657,3.104-9.009,2.901-12.424-0.306c-2.666,3.581-4.765,7.617-6.161,11.995
					c4.598,0.907,7.88,5.141,7.49,9.922c-0.389,4.781-4.319,8.421-9.003,8.57c0.665,4.545,2.081,8.874,4.126,12.837
					c3.893-2.61,9.209-1.939,12.314,1.715c3.102,3.661,2.899,9.015-0.312,12.432c3.583,2.663,7.62,4.761,12.002,6.16
					c0.901-4.602,5.137-7.886,9.917-7.493c4.785,0.388,8.424,4.318,8.571,9.002c4.553-0.665,8.875-2.077,12.84-4.128
					c-2.613-3.891-1.941-9.204,1.716-12.309c3.657-3.104,9.009-2.903,12.427,0.305c2.667-3.581,4.765-7.62,6.158-11.999
					C102.304,108.308,99.023,104.076,99.412,99.295 M94.319,102.249c-2.607,12.503-13.758,21.577-26.511,21.577
					c-1.859,0-3.733-0.197-5.564-0.579c-7.092-1.48-13.179-5.632-17.149-11.69c-3.963-6.061-5.333-13.302-3.853-20.391
					c2.609-12.5,13.761-21.577,26.511-21.577c1.859,0,3.733,0.196,5.572,0.579c7.084,1.48,13.172,5.632,17.142,11.693
					C94.431,87.918,95.799,95.159,94.319,102.249"/>
			</g>
			<g>
				<path fill="#7D868C" d="M381.683,126.331c0,40.046-31.483,70.259-70.262,70.259c-38.774,0-70.257-30.212-70.257-70.259
					c0-38.617,31.839-70.26,70.257-70.26C349.833,56.07,381.683,87.713,381.683,126.331 M364.964,126.331
					c0-29.137-22.056-53.542-53.544-53.542c-31.482,0-53.537,24.405-53.537,53.542c0,30.189,24.55,53.538,53.537,53.538
					C340.414,179.87,364.964,156.52,364.964,126.331"/>
				<path fill="#7D868C" d="M414.716,193.137h-16.73V58.917h19.226c41.293,0,54.111,14.242,54.111,38.808
					c0,28.303-21.54,39.162-47,39.162h-9.606V193.137z M414.716,121.939h5.337c17.089,0,35.606-3.208,35.606-24.566
					c0-21.007-19.937-23.499-36.489-23.499h-4.456v48.064H414.716z"/>
				<polygon fill="#7D868C" points="522.233,193.137 505.501,193.137 505.501,74.227 473.631,74.227 473.631,58.917 554.097,58.917 
					554.097,74.227 522.233,74.227 				"/>
				<polygon fill="#7D868C" points="567.264,58.918 639.355,58.918 639.355,74.229 583.993,74.229 583.993,111.784 637.756,111.784 
					637.756,127.097 583.993,127.097 583.993,177.826 639.355,177.826 639.355,193.137 567.264,193.137 				"/>
				<polygon fill="#7D868C" points="676.738,177.826 717.497,177.826 717.497,193.135 660.009,193.135 660.009,58.918 
					676.738,58.918 				"/>
			</g>
		</g>
	</g>
</g>
</svg>
